<svg xmlns="http://www.w3.org/2000/svg" viewBox="0 0 1897.17 240.99"><path d="M55.1,50.75q33.06-28.42,97.73-28.42,37.41,0,64.09,10.44T258.25,61a80.59,80.59,0,0,1,17.83,40.75h-40q-4.06-22-25.37-34.22T152.83,55.39q-90.78,0-90.77,74.53,0,38.28,23.49,56.55t67.28,18.27q36.25,0,57.56-12.47t25.67-34.51h40.31a81.58,81.58,0,0,1-18,41q-14.79,18.14-41.47,28.57T152.83,237.8q-64.67,0-97.73-28.57T22,129.92Q22,79.18,55.1,50.75Z" transform="translate(-22.04 3.19)" style="fill:#1d1d1b"/><path d="M342.35,214.89Q310,192,310,147.61t32.34-67.43q32.32-23.06,86.85-23.05t86.71,23.05q32.19,23.05,32.19,67.43t-32.19,67.28Q483.72,237.8,429.2,237.8T342.35,214.89Zm146.3-23.64q20.3-14.64,20.3-43.64,0-29.29-20.3-43.94T429.2,89q-39.43,0-59.74,14.64t-20.3,43.94q0,29.29,20.3,43.79t59.74,14.5Q468.35,205.9,488.65,191.25Z" transform="translate(-22.04 3.19)" style="fill:#1d1d1b"/><path d="M613.79,214.89q-32.34-22.9-32.34-67.28t32.34-67.43q32.33-23.06,86.85-23.05t86.71,23.05q32.19,23.05,32.19,67.43t-32.19,67.28q-32.19,22.91-86.71,22.91T613.79,214.89Zm146.3-23.64q20.29-14.64,20.3-43.64,0-29.29-20.3-43.94T700.64,89q-39.43,0-59.74,14.64t-20.3,43.94q0,29.29,20.3,43.79t59.74,14.5Q739.79,205.9,760.09,191.25Z" transform="translate(-22.04 3.19)" style="fill:#1d1d1b"/><path d="M861,232V0h36.25V232Z" transform="translate(-22.04 3.19)" style="fill:#1d1d1b"/><path d="M1106.79,198.36q17-7.83,24.21-22.33h39.15q-7.83,29.29-37.12,45.53T1058.5,237.8q-54.53,0-87-22.77T939,147.61q0-29.87,15.23-50.17t41.61-30.31q26.39-10,59.74-10,53.94,0,85.55,23.2t31.61,76.27H978.46q2.89,25.82,23.06,37.7t57.27,11.89Q1089.83,206.19,1106.79,198.36ZM980.78,127h150.51q-5.51-20-24.5-29.44t-51.19-9.42Q992.68,88.16,980.78,127Z" transform="translate(-22.04 3.19)" style="fill:#1d1d1b"/><path d="M1238,80q31.9-22.91,86.13-22.91,47,0,76.42,17.83t36.68,52.93H1397.8A46.86,46.86,0,0,0,1374,98.6Q1356,89,1324.14,89,1245,89,1245,147.61q0,58.29,79.17,58.29,31.9,0,49.88-9.57a46.84,46.84,0,0,0,23.78-29h39.44q-7.24,35.08-36.68,52.78t-76.42,17.69q-54.23,0-86.13-22.77t-31.9-67.42Q1206.11,103,1238,80Z" transform="translate(-22.04 3.19)" style="fill:#1d1d1b"/><path d="M1629.22,94.54h-86.13v65.25q0,19.43,3.19,28.85a21,21,0,0,0,11.89,13.2q8.7,3.76,26.68,3.77,17.69,0,44.37-3.48v31q-30.73,4.64-52.49,4.64-27.26,0-42.19-6.67t-21.32-22.77q-6.37-16.1-6.38-45.67V94.54h-50.46V62.93h50.46V23.49l36.25-12.18V62.93h86.13Z" transform="translate(-22.04 3.19)" style="fill:#1d1d1b"/><path d="M1678.52,40.6V0h36.25V40.6Zm0,191.4V62.93h36.25V232Z" transform="translate(-22.04 3.19)" style="fill:#1d1d1b"/><path d="M1856.87,30.59q-9,3-12.33,10.44t-3.63,21.9h78.3V94.54h-78.3V232h-36.25V94.54h-51V62.93h51V58.87q0-62.05,63.22-62.06,15.38,0,25.09.43t26.24,2.47V29q-20.3-1.45-35.38-1.45Q1865.86,27.55,1856.87,30.59Z" transform="translate(-22.04 3.19)" style="fill:#1d1d1b"/></svg>